<svg width="253" height="40" viewBox="0 0 253 40" fill="none" xmlns="http://www.w3.org/2000/svg">
<g clip-path="url(#clip0_151_106)">
<mask id="mask0_151_106" style="mask-type:luminance" maskUnits="userSpaceOnUse" x="0" y="0" width="253" height="40">
<path d="M253 0H0V40H253V0Z" fill="white"/>
</mask>
<g mask="url(#mask0_151_106)">
<path d="M24.7379 20.0129C24.7379 22.3654 22.7973 24.2758 20.3992 24.2758C18.0011 24.2758 16.0605 22.3654 16.0605 20.0129C16.0605 17.6604 18.0011 15.75 20.3992 15.75C22.7973 15.75 24.7379 17.6604 24.7379 20.0129Z" fill="#40C3D6"/>
<path d="M18.8849 19.7686H18.2854L18.877 18.8924C18.877 18.8924 18.9323 17.6293 17.4492 17.5898V21.3633C17.4492 21.3633 17.6938 22.4922 18.8849 22.3974C18.8928 22.3974 18.877 19.7686 18.8849 19.7686Z" fill="white"/>
<path d="M21.9531 17.5664V20.5899H22.5763L21.9531 21.5293C21.9531 21.5293 22.2844 22.4056 23.2784 22.3977V18.5532C23.2784 18.5532 23.2705 17.6375 21.9531 17.5664Z" fill="white"/>
<path d="M19.6662 16.641V18.8198L20.3209 19.7513H19.6504V22.3011C19.6504 22.3011 19.887 23.3747 21.094 23.3431V21.4564L20.6128 20.6275H21.1177V17.8725C21.1098 17.8646 20.9678 16.6173 19.6662 16.641Z" fill="white"/>
<path d="M18.6949 12.9309L18.5371 11.7862L20.4067 11.6836L20.3278 12.8283" fill="white"/>
<path d="M15.8156 14.3441L15.0898 13.452L16.6518 12.4258L17.1724 13.4362" fill="white"/>
<path d="M22.0566 12.8508L22.317 11.793L24.0919 12.385L23.6107 13.3639" fill="white"/>
<path d="M25.0469 14.2508L25.7647 13.4141L27.0742 14.7324L26.1986 15.3955" fill="white"/>
<path d="M27.1373 23.1992L28.1312 23.6966L27.1294 25.2517L26.2695 24.5649" fill="white"/>
<path d="M27.7837 19.9967L28.896 19.9414L28.8171 21.7808L27.7285 21.615" fill="white"/>
<path d="M27.041 16.837L28.0429 16.3555L28.7134 18.0685L27.6405 18.3369" fill="white"/>
<path d="M25.0701 25.7422L25.7327 26.6184L24.1314 27.5736L23.6738 26.5869" fill="white"/>
<path d="M22.0649 27.1016L22.2543 28.1831L20.3926 28.3252L20.432 27.2358" fill="white"/>
<path d="M18.7502 27.0996L18.4584 28.1574L16.6992 27.5101L17.2041 26.5391" fill="white"/>
<path d="M15.793 25.6954L15.083 26.5321L13.7656 25.2217L14.6334 24.5586" fill="white"/>
<path d="M13.8751 23.1053L12.747 23.6263L12.0449 21.9212L13.2519 21.6133" fill="white"/>
<path d="M13.0468 20.0273L11.8398 19.9878L12.0292 18.1484L13.2046 18.4247" fill="white"/>
<path d="M13.7582 16.9008L12.7012 16.3324L13.7188 14.7852L14.6339 15.543" fill="white"/>
<path d="M20.4623 14.0058C17.1018 14.0058 14.3645 16.6978 14.3645 19.9975C14.3645 23.3052 17.1018 25.9893 20.4623 25.9893C23.8228 25.9893 26.5601 23.2973 26.5601 19.9975C26.568 16.6899 23.8307 14.0058 20.4623 14.0058ZM20.4623 27.3076C16.3603 27.3076 13.0234 24.0315 13.0234 19.9975C13.0234 15.9636 16.3603 12.6875 20.4623 12.6875C24.5643 12.6875 27.9011 15.9636 27.9011 19.9975C27.9011 24.0315 24.5643 27.3076 20.4623 27.3076Z" fill="white"/>
<path d="M37.4232 10.3032C37.4232 11.061 36.8 11.6689 36.0349 11.6689C35.2697 11.6689 34.6465 11.061 34.6465 10.3032C34.6465 9.55325 35.2697 8.9375 36.0349 8.9375C36.8 8.94539 37.4232 9.55325 37.4232 10.3032Z" fill="white"/>
<path d="M6.02675 29.6743C6.02675 30.4321 5.40356 31.04 4.63838 31.04C3.87319 31.04 3.25 30.4321 3.25 29.6743C3.25 28.9243 3.87319 28.3086 4.63838 28.3086C5.40356 28.3086 6.02675 28.9164 6.02675 29.6743Z" fill="white"/>
<path d="M32.8951 13.0334C32.7767 13.1518 32.6111 13.2149 32.4533 13.2149C32.2955 13.2149 32.1378 13.1597 32.0115 13.0412L24.0047 5.20229L22.7425 3.97079L20.305 1.58674L1.62503 19.9487L5.18274 23.4458C5.42729 23.6827 5.42729 24.0695 5.18274 24.3063C5.06442 24.4247 4.89876 24.4879 4.74099 24.4879C4.58322 24.4879 4.42545 24.4247 4.29923 24.3063L0.094662 20.1776C-0.031554 20.0513 -0.031554 19.8461 0.094662 19.7198L4.02314 15.8674L5.27741 14.6359L14.8777 5.20229L20.0762 0.0947306C20.2025 -0.0315769 20.4076 -0.0315769 20.5417 0.0947306L24.5096 3.97869L25.7717 5.21018L32.9029 12.1808C33.1396 12.4097 33.1396 12.7965 32.8951 13.0334Z" fill="white"/>
<path d="M40.6343 19.704C40.7605 19.8303 40.7605 20.0355 40.6343 20.1618L35.4436 25.2615L25.7329 34.8056L25.157 35.374L24.4786 36.0371L20.5344 39.9132C20.4081 40.0395 20.1952 40.0395 20.0689 39.9132L7.82599 27.8745C7.58144 27.6376 7.58144 27.2508 7.82599 27.014C7.94431 26.8956 8.10997 26.8324 8.26774 26.8324C8.42551 26.8324 8.58328 26.8877 8.7095 27.014L20.3135 38.4133L22.7353 36.0371L23.4137 35.374L39.1276 19.9329L35.6487 16.5147C35.4042 16.2779 35.4042 15.891 35.6487 15.6542C35.7671 15.5358 35.9327 15.4727 36.0905 15.4727C36.2483 15.4727 36.406 15.5358 36.5322 15.6542L40.6343 19.704Z" fill="white"/>
<path d="M16.9846 35.2808C17.0714 35.2808 17.1582 35.3124 17.2134 35.3755H4.92311C4.74168 35.3755 4.5918 35.2334 4.5918 35.0519V30.7969H4.68646V34.9571C4.68646 35.1308 4.83634 35.2808 5.01778 35.2808H16.9846Z" fill="white"/>
<path d="M36.0181 24.7266V35.0522C36.0181 35.2259 35.8682 35.3759 35.6868 35.3759H23.3965C23.4596 35.3127 23.5385 35.2811 23.6253 35.2811H35.5921C35.7735 35.2811 35.9234 35.139 35.9234 34.9575V24.7266H36.0181Z" fill="white"/>
<path d="M17.3235 4.52525L16.724 5.10942C16.6609 5.17258 16.582 5.20415 16.4952 5.20415H5.2699V15.6798C5.2699 15.8613 5.12002 16.0034 4.93858 16.0034H4.34694C4.16551 16.0034 4.01562 15.8613 4.01562 15.6798V4.29632C4.01562 4.11475 4.16551 3.97266 4.34694 3.97266H17.0869C17.3787 3.98055 17.5286 4.32 17.3235 4.52525Z" fill="white"/>
<path d="M36.6964 4.29632V9.05653C36.6964 9.2381 36.5466 9.3802 36.3651 9.3802H35.7735C35.592 9.3802 35.4422 9.2381 35.4422 9.05653V5.20415H24.1379C24.0512 5.20415 23.9723 5.17258 23.9092 5.10942L23.3096 4.52525C23.1045 4.32 23.2465 3.97266 23.5384 3.97266H36.3651C36.5466 3.97266 36.6964 4.12265 36.6964 4.29632Z" fill="white"/>
<path d="M17.0948 36.0364H4.34694C4.16551 36.0364 4.01562 35.8944 4.01562 35.7128V30.9526C4.01562 30.771 4.16551 30.6289 4.34694 30.6289H4.94647C5.1279 30.6289 5.27779 30.771 5.27779 30.9526V34.8049H16.5031C16.5899 34.8049 16.6767 34.8365 16.7319 34.8997L17.3235 35.4839C17.5365 35.6891 17.3866 36.0364 17.0948 36.0364Z" fill="white"/>
<path d="M36.6967 24.2729V35.7037C36.6967 35.8853 36.5468 36.0274 36.3653 36.0274H23.515C23.2231 36.0274 23.0811 35.68 23.2862 35.4748L23.4045 35.3643L23.8857 34.8906C23.9488 34.8275 24.0277 34.7959 24.1145 34.7959H35.4503V24.2729C35.4503 24.0992 35.6002 23.9492 35.7816 23.9492H36.3732C36.5468 23.9492 36.6967 24.0992 36.6967 24.2729Z" fill="white"/>
<path d="M60.3871 23.6734C60.3871 23.8155 60.4739 23.8629 60.6159 23.8629H64.7179C65.9879 23.8629 66.5717 23.2866 66.5717 22.3235C66.5717 21.3288 65.9485 20.7999 64.7179 20.7999H60.3871V23.6734ZM60.3871 19.079H64.6627C65.9091 19.079 66.5165 18.6211 66.5165 17.658C66.5165 16.7265 65.9643 16.1187 64.6784 16.1187H60.6159C60.4739 16.1187 60.3871 16.1897 60.3871 16.3318V19.079ZM64.6153 14.0898C67.4473 14.0898 68.6464 15.4003 68.6464 17.3344C68.6464 18.7001 68.0389 19.5211 66.9188 19.9631C68.0626 20.421 68.7016 21.2973 68.7016 22.663C68.7016 24.5576 67.5104 25.9233 64.6706 25.9233H59.3221C58.6437 25.9233 58.3203 25.6075 58.3203 24.9602V15.0529C58.3203 14.4056 58.6437 14.0898 59.3221 14.0898H64.6153Z" fill="white"/>
<path d="M77.734 16.1581C75.4148 16.1581 74.3972 17.3107 74.3972 20.0263C74.3972 22.7261 75.399 23.8471 77.734 23.8471H79.3748C81.694 23.8471 82.688 22.7261 82.688 20.0105C82.688 17.3107 81.694 16.1581 79.3748 16.1581H77.734ZM79.3748 14.0898C82.8694 14.0898 84.81 16.0555 84.81 20.0263C84.81 23.9813 82.8852 25.9154 79.3748 25.9154H77.734C74.2236 25.9154 72.2988 23.9892 72.2988 20.0263C72.2988 16.0476 74.2394 14.0898 77.734 14.0898H79.3748Z" fill="white"/>
<path d="M96.7365 14.0898V16.1581H93.226V25.9154H91.104V16.1581H87.5938V14.0898H96.7365Z" fill="white"/>
<path d="M116.324 14.0898V16.1581H111.67C109.35 16.1581 108.333 17.2949 108.333 20.0105C108.333 22.7103 109.335 23.8471 111.67 23.8471H116.324V25.9154H111.67C108.159 25.9154 106.234 23.9734 106.234 20.0105C106.234 16.0318 108.175 14.0898 111.67 14.0898H116.324Z" fill="white"/>
<path d="M125.261 16.1581C122.942 16.1581 121.925 17.3107 121.925 20.0263C121.925 22.7261 122.926 23.8471 125.261 23.8471H126.902C129.221 23.8471 130.215 22.7261 130.215 20.0105C130.215 17.3107 129.221 16.1581 126.902 16.1581H125.261ZM126.902 14.0898C130.397 14.0898 132.337 16.0555 132.337 20.0263C132.337 23.9813 130.413 25.9154 126.902 25.9154H125.261C121.751 25.9154 119.826 23.9892 119.826 20.0263C119.826 16.0476 121.767 14.0898 125.261 14.0898H126.902Z" fill="white"/>
<path d="M138.507 25.9176H136.4V16.4524C136.4 14.913 137.292 13.8789 139.161 13.8789C140.834 13.8789 141.583 14.7236 142.088 16.0656L145.598 23.6125C145.74 23.8967 145.969 24.1019 146.364 24.1019C146.813 24.1019 147.074 23.8414 147.074 23.4388V14.0921H149.196V23.5335C149.196 25.0887 148.288 26.1228 146.435 26.1228C144.762 26.1228 143.989 25.2782 143.492 23.9361L139.982 16.3814C139.824 16.034 139.603 15.8761 139.232 15.8761C138.751 15.8761 138.499 16.1367 138.499 16.5629V25.9176H138.507Z" fill="white"/>
<path d="M162.984 14.0898V16.1581H156.815C155.726 16.1581 155.245 16.7344 155.245 17.5633C155.245 18.2817 155.616 18.9606 157.028 18.9606H159.844C163.126 18.9606 163.891 20.7447 163.891 22.4498C163.891 24.4471 162.802 25.9154 160.057 25.9154H153.352V23.8471H160.128C161.272 23.8471 161.785 23.2313 161.785 22.3788C161.785 21.6051 161.374 20.9104 159.891 20.9104H157.091C153.88 20.9104 153.131 19.1421 153.131 17.4923C153.131 15.5266 154.204 14.0898 156.878 14.0898H162.984Z" fill="white"/>
<path d="M169.878 14.0898V21.992C169.878 23.1682 170.486 23.8471 171.874 23.8471H174.012C175.368 23.8471 175.992 23.1682 175.992 21.992V14.0898H178.058V22.1498C178.058 24.6365 176.717 25.9154 174.154 25.9154H171.621C169.05 25.9154 167.732 24.6365 167.732 22.1498V14.0898H169.878Z" fill="white"/>
<path d="M184.466 14.0898V21.8183C184.466 22.955 185.034 23.8471 186.927 23.8471H191.597V25.9154H186.801C183.614 25.9154 182.359 24.1944 182.359 21.8341V14.0898H184.466Z" fill="white"/>
<path d="M202.309 14.0898V16.1581H198.798V25.9154H196.676V16.1581H193.166V14.0898H202.309Z" fill="white"/>
<path d="M207.997 14.0898H205.891V25.9154H207.997V14.0898Z" fill="white"/>
<path d="M214.591 25.9176H212.484V16.4524C212.484 14.913 213.376 13.8789 215.245 13.8789C216.918 13.8789 217.667 14.7236 218.172 16.0656L221.682 23.6125C221.824 23.8967 222.053 24.1019 222.448 24.1019C222.889 24.1019 223.158 23.8414 223.158 23.4388V14.0921H225.28V23.5335C225.28 25.0887 224.372 26.1228 222.519 26.1228C220.846 26.1228 220.073 25.2782 219.576 23.9361L216.066 16.3814C215.908 16.034 215.687 15.8761 215.316 15.8761C214.835 15.8761 214.583 16.1367 214.583 16.5629V25.9176H214.591Z" fill="white"/>
<path d="M239.723 14.0899V16.1582H234.769C232.45 16.1582 231.432 17.295 231.432 20.0106C231.432 22.7104 232.434 23.8472 234.769 23.8472H236.765C237.94 23.8472 238.437 23.1446 238.437 22.1815C238.437 21.2342 237.94 20.6737 236.954 20.6737H234.288V18.8659H237.175C239.313 18.8659 240.362 20.1606 240.362 22.2131C240.362 24.2814 239.313 25.9076 236.623 25.9076H234.769C231.259 25.9076 229.334 23.9656 229.334 20.0027C229.334 16.024 231.275 14.082 234.769 14.082H239.723V14.0899Z" fill="white"/>
<path d="M246.554 7.41406V8.14033H245V12.9874H244.093V8.14033H242.547V7.41406H246.554Z" fill="white"/>
<path d="M252.999 7.5V12.9865H252.092V8.87359L250.506 12.9865H249.717L248.124 8.87359V12.9865H247.225V7.5H248.313L250.128 11.8813L251.91 7.5H252.999Z" fill="white"/>
</g>
</g>
<defs>
<clipPath id="clip0_151_106">
<rect width="253" height="40" fill="white"/>
</clipPath>
</defs>
</svg>
