<?xml version="1.0" encoding="UTF-8"?>
<svg id="Layer_2" data-name="Layer 2" xmlns="http://www.w3.org/2000/svg" viewBox="0 0 1312.5 339.89">
  <defs>
    <style>
      .cls-1 {
        letter-spacing: 0em;
      }

      .cls-2 {
        fill: #000816;
      }

      .cls-3 {
        font-family: MyriadPro-Bold, 'Myriad Pro';
        font-size: 30.42px;
        font-weight: 700;
      }

      .cls-4 {
        fill: #01ddee;
      }
    </style>
  </defs>
  <g id="Layer_1-2" data-name="Layer 1">
    <g>
      <g>
        <g>
          <path class="cls-2" d="M416.51,142.13c3.3,0,6.11.37,8.45,1.11,2.33.74,4.26,1.79,5.77,3.13,1.51,1.35,2.62,2.96,3.34,4.82.71,1.87,1.07,3.93,1.07,6.18,0,3.24-.67,5.85-2.02,7.83-1.35,1.98-3.34,3.49-5.98,4.53,2.64,1.1,4.67,2.68,6.1,4.74,1.43,2.06,2.14,4.71,2.14,7.95,0,2.25-.36,4.31-1.07,6.18-.72,1.87-1.83,3.48-3.34,4.82-1.51,1.35-3.44,2.4-5.77,3.17-2.34.77-5.15,1.15-8.45,1.15h-24.73c-3.08,0-4.62-1.51-4.62-4.53v-46.57c0-3.02,1.54-4.53,4.62-4.53h24.48ZM396.97,165.62h19.78c5.71,0,8.57-2.23,8.57-6.68,0-2.2-.67-3.96-2.02-5.27-1.35-1.32-3.5-1.98-6.47-1.98h-18.79c-.71,0-1.07.33-1.07.99v12.94ZM396.97,187.21c0,.61.36.91,1.07.91h18.96c2.97,0,5.14-.63,6.51-1.9,1.37-1.26,2.06-3.05,2.06-5.36,0-4.78-2.86-7.17-8.57-7.17h-20.03v13.52Z"/>
          <path class="cls-2" d="M485.58,142.13c8.13,0,14.36,2.31,18.67,6.92,4.31,4.62,6.47,11.62,6.47,21.02s-2.16,16.29-6.47,20.85c-4.31,4.56-10.54,6.84-18.67,6.84h-7.58c-8.13,0-14.36-2.28-18.67-6.84-4.31-4.56-6.47-11.51-6.47-20.85s2.16-16.4,6.47-21.02c4.31-4.62,10.54-6.92,18.67-6.92h7.58ZM478,151.85c-5.39,0-9.3,1.43-11.75,4.29-2.45,2.86-3.67,7.5-3.67,13.93s1.21,10.96,3.63,13.77c2.42,2.8,6.35,4.2,11.79,4.2h7.58c5.33,0,9.22-1.41,11.66-4.25,2.44-2.83,3.67-7.43,3.67-13.81s-1.21-10.99-3.63-13.85c-2.42-2.86-6.32-4.29-11.7-4.29h-7.58Z"/>
          <path class="cls-2" d="M566.69,142.13v9.73h-16.24v45.91h-9.81v-45.91h-16.24v-9.73h42.28Z"/>
          <path class="cls-2" d="M658.92,142.13v9.73h-21.51c-5.39,0-9.3,1.42-11.75,4.24-2.45,2.83-3.67,7.46-3.67,13.89s1.21,10.98,3.63,13.81c2.42,2.83,6.35,4.25,11.79,4.25h21.51v9.73h-21.51c-8.13,0-14.36-2.29-18.67-6.88-4.31-4.59-6.47-11.55-6.47-20.89s2.16-16.39,6.47-20.98c4.31-4.59,10.54-6.88,18.67-6.88h21.51Z"/>
          <path class="cls-2" d="M708.62,142.13c8.13,0,14.36,2.31,18.67,6.92,4.31,4.62,6.47,11.62,6.47,21.02s-2.16,16.29-6.47,20.85c-4.31,4.56-10.54,6.84-18.67,6.84h-7.58c-8.13,0-14.36-2.28-18.67-6.84-4.31-4.56-6.47-11.51-6.47-20.85s2.16-16.4,6.47-21.02c4.31-4.62,10.54-6.92,18.67-6.92h7.58ZM701.04,151.85c-5.39,0-9.3,1.43-11.75,4.29-2.45,2.86-3.67,7.5-3.67,13.93s1.21,10.96,3.63,13.77c2.42,2.8,6.35,4.2,11.79,4.2h7.58c5.33,0,9.22-1.41,11.66-4.25,2.44-2.83,3.67-7.43,3.67-13.81s-1.21-10.99-3.63-13.85c-2.42-2.86-6.32-4.29-11.7-4.29h-7.58Z"/>
          <path class="cls-2" d="M763.11,197.76h-9.73v-44.51c0-3.63,1.04-6.55,3.13-8.78,2.09-2.23,5.3-3.34,9.64-3.34,3.85,0,6.77.92,8.78,2.76,2,1.84,3.59,4.36,4.74,7.54l16.24,35.53c.33.66.77,1.21,1.32,1.65.55.44,1.29.66,2.23.66,1.04,0,1.85-.29,2.43-.87.58-.58.87-1.33.87-2.27v-44.01h9.81v44.43c0,3.68-1.06,6.63-3.17,8.86-2.12,2.23-5.32,3.34-9.6,3.34-1.92,0-3.61-.23-5.07-.7-1.46-.47-2.72-1.15-3.79-2.06-1.07-.91-1.99-1.99-2.76-3.26-.77-1.26-1.43-2.69-1.98-4.29l-16.24-35.53c-.71-1.59-1.87-2.39-3.46-2.39-1.1,0-1.94.29-2.51.87-.58.58-.87,1.36-.87,2.35v44.01Z"/>
          <path class="cls-2" d="M877.1,142.13v9.73h-28.52c-2.53,0-4.37.62-5.52,1.85s-1.73,2.82-1.73,4.74c0,.82.12,1.64.37,2.43.25.8.69,1.51,1.32,2.14.63.63,1.47,1.13,2.51,1.48,1.04.36,2.39.54,4.04.54h13.02c3.79,0,6.9.48,9.31,1.44,2.42.96,4.33,2.21,5.73,3.75,1.4,1.54,2.36,3.3,2.89,5.27.52,1.98.78,3.96.78,5.93,0,2.36-.33,4.53-.99,6.51-.66,1.98-1.7,3.7-3.13,5.15-1.43,1.46-3.26,2.6-5.48,3.42s-4.93,1.24-8.12,1.24h-30.99v-9.73h31.32c2.64,0,4.57-.65,5.81-1.94,1.24-1.29,1.85-2.95,1.85-4.99,0-.88-.14-1.74-.41-2.6-.28-.85-.74-1.59-1.4-2.23-.66-.63-1.55-1.14-2.68-1.52-1.13-.38-2.54-.58-4.24-.58h-12.94c-3.74,0-6.79-.47-9.15-1.4-2.36-.93-4.22-2.17-5.56-3.71-1.35-1.54-2.28-3.27-2.8-5.19-.52-1.92-.78-3.85-.78-5.77,0-2.31.32-4.44.95-6.39.63-1.95,1.65-3.64,3.05-5.07,1.4-1.43,3.2-2.54,5.4-3.34,2.2-.8,4.83-1.19,7.91-1.19h28.19Z"/>
          <path class="cls-2" d="M909.83,142.13v37.17c0,2.8.73,4.96,2.18,6.47,1.46,1.51,3.8,2.27,7.05,2.27h9.89c3.13,0,5.44-.75,6.92-2.27,1.48-1.51,2.23-3.67,2.23-6.47v-37.17h9.56v37.92c0,5.88-1.51,10.3-4.53,13.27-3.02,2.97-7.53,4.45-13.52,4.45h-11.7c-11.98,0-17.97-5.91-17.97-17.72v-37.92h9.89Z"/>
          <path class="cls-2" d="M978.07,142.13v36.35c0,1.32.18,2.57.54,3.75.36,1.18.97,2.2,1.85,3.05.88.85,2.05,1.52,3.5,2.02,1.46.49,3.28.74,5.48.74h21.6v9.73h-22.17c-3.68,0-6.83-.48-9.44-1.44-2.61-.96-4.74-2.29-6.39-4-1.65-1.7-2.84-3.72-3.59-6.06-.74-2.34-1.11-4.9-1.11-7.71v-36.43h9.73Z"/>
          <path class="cls-2" d="M1066.35,142.13v9.73h-16.24v45.91h-9.81v-45.91h-16.24v-9.73h42.28Z"/>
          <path class="cls-2" d="M1093.47,142.13v55.64h-9.73v-55.64h9.73Z"/>
          <path class="cls-2" d="M1124.79,197.76h-9.73v-44.51c0-3.63,1.04-6.55,3.13-8.78,2.09-2.23,5.3-3.34,9.64-3.34,3.85,0,6.77.92,8.78,2.76,2,1.84,3.59,4.36,4.74,7.54l16.24,35.53c.33.66.77,1.21,1.32,1.65.55.44,1.29.66,2.23.66,1.04,0,1.85-.29,2.43-.87.58-.58.87-1.33.87-2.27v-44.01h9.81v44.43c0,3.68-1.06,6.63-3.17,8.86-2.12,2.23-5.32,3.34-9.6,3.34-1.92,0-3.61-.23-5.07-.7-1.46-.47-2.72-1.15-3.79-2.06-1.07-.91-1.99-1.99-2.76-3.26-.77-1.26-1.43-2.69-1.98-4.29l-16.24-35.53c-.71-1.59-1.87-2.39-3.46-2.39-1.1,0-1.94.29-2.51.87-.58.58-.87,1.36-.87,2.35v44.01Z"/>
          <path class="cls-2" d="M1241.84,142.13v9.73h-22.91c-5.39,0-9.3,1.42-11.75,4.24-2.45,2.83-3.67,7.46-3.67,13.89s1.21,10.98,3.63,13.81c2.42,2.83,6.35,4.25,11.79,4.25h9.23c2.75,0,4.73-.73,5.93-2.18,1.21-1.45,1.81-3.34,1.81-5.65s-.56-4-1.69-5.23c-1.13-1.24-2.84-1.85-5.15-1.85h-12.36v-8.49h13.35c5,0,8.71,1.42,11.13,4.25,2.42,2.83,3.63,6.66,3.63,11.5,0,2.42-.32,4.68-.95,6.8-.63,2.12-1.65,3.96-3.05,5.52-1.4,1.57-3.19,2.8-5.36,3.71-2.17.91-4.82,1.36-7.95,1.36h-8.57c-8.13,0-14.36-2.29-18.67-6.88-4.31-4.59-6.47-11.55-6.47-20.89s2.16-16.39,6.47-20.98c4.31-4.59,10.54-6.88,18.67-6.88h22.91Z"/>
        </g>
        <g>
          <circle class="cls-4" cx="169.94" cy="169.95" r="36.71"/>
          <path d="M136.87,306.82H38.07c-2.76,0-5-2.24-5-5v-48.8c0-2.76,2.24-5,5-5s5,2.24,5,5v43.8h93.8c2.76,0,5,2.24,5,5s-2.24,5-5,5Z"/>
          <path d="M301.81,306.82h-98.8c-2.76,0-5-2.24-5-5s2.24-5,5-5h93.8v-93.81c0-2.76,2.24-5,5-5s5,2.24,5,5v98.81c0,2.76-2.24,5-5,5Z"/>
          <path d="M301.81,91.87c-2.76,0-5-2.24-5-5v-43.8h-93.8c-2.76,0-5-2.24-5-5s2.24-5,5-5h98.8c2.76,0,5,2.24,5,5v48.8c0,2.76-2.24,5-5,5Z"/>
          <path d="M38.07,141.87c-2.76,0-5-2.24-5-5V38.07c0-2.76,2.24-5,5-5h98.8c2.76,0,5,2.24,5,5s-2.24,5-5,5H43.07v93.8c0,2.76-2.24,5-5,5Z"/>
          <g>
            <path d="M169.94,339.89c-1.28,0-2.56-.49-3.54-1.46l-101.42-101.42c-1.95-1.95-1.95-5.12,0-7.07,1.95-1.95,5.12-1.95,7.07,0l97.88,97.88,157.87-157.88-29.53-29.53c-1.95-1.95-1.95-5.12,0-7.07,1.95-1.95,5.12-1.95,7.07,0l33.07,33.07c1.95,1.95,1.95,5.12,0,7.07l-164.94,164.95c-.98.98-2.26,1.46-3.54,1.46Z"/>
            <path d="M38.07,208.02c-1.28,0-2.56-.49-3.54-1.46L1.46,173.48c-1.95-1.95-1.95-5.12,0-7.07L166.4,1.46c.94-.94,2.21-1.46,3.54-1.46s2.6.53,3.54,1.46l101.42,101.42c1.95,1.95,1.95,5.12,0,7.07-1.95,1.95-5.12,1.95-7.07,0L169.94,12.07,12.07,169.94l29.54,29.54c1.95,1.95,1.95,5.12,0,7.07-.98.98-2.26,1.46-3.54,1.46Z"/>
          </g>
          <circle cx="301.81" cy="86.87" r="11.54"/>
          <circle cx="38.07" cy="252.42" r="11.54"/>
          <g>
            <path d="M232.47,169.74c-.01-4.77-.58-9.42-1.62-13.89l8.96-2.07c-1.21-5.22-3.01-10.32-5.35-15.14l-8.26,4.02c-2.06-4.23-4.59-8.18-7.5-11.81l7.17-5.76c-3.35-4.18-7.18-7.98-11.37-11.32l-5.73,7.21c-3.64-2.9-7.61-5.41-11.85-7.44l3.97-8.28c-4.84-2.32-9.94-4.09-15.18-5.27l-2.01,8.96c-4.43-1-9.03-1.54-13.76-1.54h-.15l-.02-9.16c-5.38,0-10.74.62-15.94,1.82l2.06,8.95c-4.62,1.06-9.04,2.62-13.2,4.65l-4.01-8.27c-4.81,2.34-9.37,5.22-13.56,8.58l5.76,7.18c-3.65,2.93-6.96,6.25-9.88,9.91l-7.2-5.73c-3.34,4.2-6.21,8.78-8.53,13.6l8.28,3.98c-2.01,4.17-3.55,8.6-4.6,13.22l-8.96-2.02c-1.16,5.16-1.75,10.49-1.75,15.83v.1h9.16c.01,4.78.57,9.43,1.6,13.9l-8.96,2.05c1.2,5.23,2.99,10.32,5.33,15.15l8.26-4c2.06,4.23,4.58,8.19,7.49,11.82l-7.19,5.75c3.35,4.18,7.17,7.99,11.36,11.33l5.73-7.2c3.65,2.91,7.61,5.42,11.84,7.47l-3.98,8.27c4.84,2.33,9.94,4.11,15.17,5.29l2.03-8.96c4.46,1.01,9.09,1.57,13.86,1.57h.05v9.16c5.38-.01,10.74-.61,15.95-1.8l-2.05-8.95c4.62-1.06,9.04-2.61,13.21-4.63l3.99,8.27c4.82-2.33,9.39-5.2,13.58-8.55l-5.75-7.19c3.65-2.92,6.97-6.24,9.89-9.9l7.2,5.74c3.34-4.19,6.22-8.77,8.54-13.59l-8.26-3.98c2.01-4.17,3.56-8.6,4.61-13.21l8.96,2.03c1.18-5.2,1.78-10.57,1.78-16v-.15h-9.17ZM169.94,222.49c-28.97,0-52.54-23.57-52.54-52.54s23.57-52.54,52.54-52.54,52.54,23.57,52.54,52.54-23.57,52.54-52.54,52.54Z"/>
            <g>
              <path d="M175.86,175.53h-4.47l4.47,7.74v15.21c-6.54,0-11.84-5.3-11.84-11.84v-18.5h5.09l-5.09-8.82v-17.9c3.27,0,6.23,1.33,8.37,3.47,2.15,2.14,3.47,5.1,3.47,8.36v22.28Z"/>
              <g>
                <path d="M157.06,168.14v22.52c-6.54,0-11.84-5.3-11.84-11.84v-29.58c3.27,0,6.23,1.33,8.37,3.47,1.99,1.98,3.27,4.67,3.44,7.65l-4.49,7.78h4.52Z"/>
                <path d="M194.65,161.08v29.58c-5.04,0-9.34-3.15-11.04-7.59l4.35-7.54h-5.14v-26.29c3.26,0,6.22,1.33,8.36,3.47,2.14,2.14,3.47,5.1,3.47,8.37Z"/>
              </g>
            </g>
          </g>
        </g>
      </g>
      <text class="cls-3" transform="translate(1270.21 139.14)"><tspan class="cls-1" x="0" y="0">T</tspan><tspan x="16.55" y="0">M</tspan></text>
    </g>
  </g>
</svg>