<svg width="269" height="56" viewBox="0 0 269 56" fill="none" xmlns="http://www.w3.org/2000/svg">
<path d="M150.649 42.6066C149.673 42.1037 148.589 41.6587 147.426 41.2844L147.415 41.2808C146.207 40.9092 145.339 40.6301 144.602 40.3764C143.871 40.1245 143.303 39.8254 142.909 39.4838C142.728 39.3297 142.488 39.0533 142.488 38.4425C142.488 37.8888 142.665 37.5163 143.057 37.2399C143.537 36.9074 144.149 36.7488 144.875 36.7651H144.895C145.749 36.7651 146.379 36.9717 146.819 37.3967C147.255 37.8181 147.475 38.2785 147.492 38.8059L147.498 38.996V39.6258H153.654L153.626 38.9457L153.618 38.747C153.564 37.3342 153.153 36.0872 152.394 35.0378C151.639 34.0065 150.602 33.2 149.31 32.6409C148.042 32.0917 146.578 31.8135 144.958 31.8135C143.337 31.8135 141.908 32.0863 140.658 32.6236C139.37 33.1692 138.337 33.963 137.585 34.9853C136.814 36.0338 136.436 37.2907 136.462 38.7216C136.464 40.4299 137.016 41.8263 138.101 42.8676C139.112 43.8463 140.576 44.6465 142.453 45.2455L143.435 45.5561C144.16 45.785 144.855 46.0045 145.519 46.217C146.376 46.4916 147.058 46.8378 147.546 47.2474C148.014 47.6407 148.113 48.2188 148.113 48.6348C148.113 49.203 147.911 49.6099 147.459 49.9543C146.956 50.3376 146.234 50.5315 145.312 50.5315C144.232 50.5315 143.426 50.2715 142.85 49.7359C142.282 49.2075 141.991 48.5813 141.96 47.8201L141.946 47.4558L141.938 47.0169L135.895 47.0169L135.909 47.7257H135.91L135.911 47.8627C135.929 49.464 136.368 50.8587 137.217 52.0069C138.042 53.1242 139.181 53.9906 140.601 54.5805C141.983 55.1551 143.582 55.4469 145.352 55.4469H146.177V55.4106C147.69 55.3291 149.011 55.0201 150.112 54.489C151.448 53.8438 152.473 52.9729 153.156 51.9008C153.849 50.8143 154.201 49.6217 154.201 48.3575C154.201 46.9302 153.863 45.7313 153.198 44.797C152.555 43.8844 151.698 43.1485 150.651 42.6084L150.649 42.6066Z" fill="#0B2026"/>
<path d="M170.851 46.1408C170.851 47.5653 170.512 48.5731 169.81 49.2237C169.099 49.8898 168.119 50.2142 166.815 50.2142C165.51 50.2142 164.5 49.8816 163.805 49.2237C163.124 48.5857 162.78 47.549 162.78 46.1408C162.78 41.4861 162.774 36.8312 162.774 32.1768H156.952C156.952 36.8214 156.951 41.4662 156.951 46.1108C156.951 48.1788 157.397 49.9333 158.277 51.3244C159.157 52.7163 160.36 53.7648 161.849 54.44C163.294 55.1033 164.93 55.4404 166.713 55.4422H166.729C168.492 55.4404 170.141 55.1042 171.632 54.4436C173.156 53.7639 174.389 52.719 175.298 51.3361C176.215 49.9415 176.68 48.1834 176.68 46.1099C176.68 41.4657 176.67 36.8207 176.67 32.1768C174.731 32.1768 172.789 32.1768 170.848 32.1768L170.851 46.1408Z" fill="#0B2026"/>
<path d="M229.837 32.1768C227.576 36.3621 225.306 40.5421 223.097 44.7548C220.873 40.5644 218.59 36.363 216.358 32.1768L210.079 32.1768C210.079 39.8041 210.079 47.4548 210.079 55.0924H215.904V42.8106C217.569 45.9038 219.287 48.9728 220.971 52.0556H225.222C226.897 48.968 228.595 45.8923 230.281 42.8106L230.277 55.0924H236.114C236.117 47.4538 236.114 39.8153 236.114 32.1768H229.837Z" fill="#0B2026"/>
<path d="M199.995 32.1768C197.734 36.3621 195.464 40.5421 193.255 44.7548C191.031 40.5644 188.748 36.363 186.516 32.1768L180.237 32.1768C180.237 39.8041 180.237 47.4548 180.237 55.0924H186.062V42.8106C187.727 45.9038 189.445 48.9728 191.129 52.0556H195.38C197.055 48.968 198.753 45.8923 200.439 42.8106L200.436 55.0924H206.272C206.275 47.4538 206.272 39.8153 206.272 32.1768H199.995Z" fill="#0B2026"/>
<path d="M245.206 32.1768H239.377C239.377 39.8153 239.377 47.4538 239.377 55.0923H245.206V32.1768Z" fill="#0B2026"/>
<path d="M255.017 55.092V36.9474H248.318V32.1758H267.565V36.9474H260.816V55.092H255.017Z" fill="#0B2026"/>
<path d="M9.6627 55.0927H0V32.1758H9.89361C12.5366 32.1758 14.764 32.6873 16.5758 33.714C18.4728 34.8117 19.876 36.2362 20.7712 37.977C21.6665 39.7212 22.1141 41.6005 22.1141 43.6147C22.1141 46.0801 21.5634 48.1654 20.4586 49.8777C19.2792 51.6646 17.741 52.9825 15.8475 53.828C13.9541 54.6735 11.8901 55.0963 9.6627 55.0963V55.0927ZM10.057 50.2543C11.0375 50.2543 11.9825 50.0233 12.8919 49.5686C13.8013 49.1104 14.5509 48.375 15.1513 47.3626C15.709 46.3892 15.9861 45.1671 15.9861 43.6858C15.9861 42.2044 15.6912 40.9219 15.1015 39.9415C14.455 38.9148 13.6592 38.1794 12.7107 37.7283C11.7622 37.2771 10.7782 37.0533 9.76217 37.0533H5.993V50.2614H10.057V50.2543Z" fill="#0B2026"/>
<path d="M46.02 55.0924H39.6816L38.1207 51.0355H28.2766L26.684 55.0924H20.5781L30.3589 32.1758H36.4683L46.02 55.0924ZM36.3696 46.4636L33.2515 38.293L30.07 46.4636H36.3696Z" fill="#0B2026"/>
<path d="M55.4977 55.0927H49.5011V37.1102H42.6875V32.1758H62.3788V37.1137H55.5012V55.0927H55.4977Z" fill="#0B2026"/>
<path d="M84.3922 55.0924H78.0014L76.4277 51.0355H66.5058L64.9001 55.0924H58.7402L68.6017 32.1758H74.7616L84.3922 55.0924ZM74.6621 46.4636L71.5183 38.293L68.3104 46.4636H74.6621Z" fill="#0B2026"/>
<path d="M115.521 55.0924H109.13L107.557 51.0355H97.6347L96.029 55.0924H89.8691L99.7306 32.1758H105.891L115.521 55.0924ZM105.791 46.4636L102.647 38.293L99.4393 46.4636H105.791Z" fill="#0B2026"/>
<path d="M88.7822 36.1045H92.8037V39.3779H88.7822V43.4941H85.5078V39.3779H81.4863V36.1045H85.5078V32.1758H88.7822V36.1045Z" fill="#0B2026"/>
<path d="M117.266 55.0925V32.1758H123.095V55.0925H117.266Z" fill="#0B2026"/>
<g clip-path="url(#clip0_24475_5419)">
<path d="M21.4743 10.0327L11.4416 15.695L0.698349 9.64517L0.181641 9.92506V14.3171L11.4416 20.6468L21.4743 15.006V17.3312L11.4416 22.9935L0.698349 16.9437L0.181641 17.2236V17.9771L11.4416 24.3068L22.68 17.9771V13.5851L22.1633 13.3052L11.4416 19.3335L1.38729 13.6927V11.3675L11.4416 17.0083L22.68 10.6786V6.35116L22.1202 6.02822L11.4416 12.035L1.904 6.69563L11.4416 1.33478L19.2783 5.74833L19.9673 5.3608V4.82256L11.4416 0.0214844L0.181641 6.35116V7.0401L11.4416 13.3698L21.4743 7.70752V10.0327Z" fill="#FF3621"/>
<path d="M43.7136 20.7114V1.37793H40.7425V8.61184C40.7425 8.71949 40.6779 8.80561 40.5703 8.84867C40.4626 8.89173 40.355 8.84867 40.2904 8.78408C39.2785 7.59996 37.7068 6.93254 35.9845 6.93254C32.3029 6.93254 29.418 10.0328 29.418 13.9942C29.418 15.9319 30.0854 17.7188 31.3126 19.0321C32.5397 20.3454 34.1975 21.0559 35.9845 21.0559C37.6853 21.0559 39.257 20.3454 40.2904 19.1182C40.355 19.0321 40.4841 19.0106 40.5703 19.0321C40.6779 19.0752 40.7425 19.1613 40.7425 19.2689V20.7114H43.7136ZM36.6304 18.3647C34.2621 18.3647 32.4106 16.4486 32.4106 13.9942C32.4106 11.5399 34.2621 9.62373 36.6304 9.62373C38.9986 9.62373 40.8501 11.5399 40.8501 13.9942C40.8501 16.4486 38.9986 18.3647 36.6304 18.3647Z" fill="#1B3139"/>
<path d="M59.6022 20.69V7.25561H56.6526V8.61196C56.6526 8.71961 56.5881 8.80573 56.4804 8.84879C56.3728 8.89185 56.2651 8.84879 56.2005 8.76267C55.2102 7.57855 53.66 6.91113 51.8946 6.91113C48.2131 6.91113 45.3281 10.0114 45.3281 13.9728C45.3281 17.9342 48.2131 21.0345 51.8946 21.0345C53.5955 21.0345 55.1671 20.324 56.2005 19.0753C56.2651 18.9892 56.3943 18.9677 56.4804 18.9892C56.5881 19.0322 56.6526 19.1184 56.6526 19.226V20.69H59.6022ZM52.562 18.3648C50.1938 18.3648 48.3423 16.4487 48.3423 13.9943C48.3423 11.54 50.1938 9.62385 52.562 9.62385C54.9303 9.62385 56.7818 11.54 56.7818 13.9943C56.7818 16.4487 54.9303 18.3648 52.562 18.3648Z" fill="#1B3139"/>
<path d="M84.8561 20.7115V7.25561H81.9066V8.61196C81.9066 8.71961 81.842 8.80573 81.7343 8.84879C81.6267 8.89185 81.519 8.84879 81.4544 8.76267C80.4641 7.57855 78.9139 6.91113 77.1485 6.91113C73.4455 6.91113 70.582 10.0114 70.582 13.9943C70.582 17.9773 73.467 21.056 77.1485 21.056C78.8494 21.056 80.421 20.3455 81.4544 19.0968C81.519 19.0107 81.6482 18.9892 81.7343 19.0107C81.842 19.0538 81.9066 19.1399 81.9066 19.2475V20.7115H84.8561ZM77.8159 18.3648C75.4477 18.3648 73.5962 16.4487 73.5962 13.9943C73.5962 11.54 75.4477 9.62385 77.8159 9.62385C80.1842 9.62385 82.0357 11.54 82.0357 13.9943C82.0357 16.4487 80.1842 18.3648 77.8159 18.3648Z" fill="#1B3139"/>
<path d="M90.2605 19.1182C90.282 19.1182 90.3251 19.0967 90.3466 19.0967C90.4112 19.0967 90.4973 19.1398 90.5404 19.1828C91.5523 20.367 93.1239 21.0344 94.8463 21.0344C98.5278 21.0344 101.413 17.9341 101.413 13.9727C101.413 12.035 100.745 10.2481 99.5182 8.93479C98.291 7.62149 96.6332 6.91101 94.8463 6.91101C93.1455 6.91101 91.5738 7.62149 90.5404 8.84867C90.4758 8.93479 90.3681 8.95632 90.2605 8.93479C90.1528 8.89173 90.0883 8.80561 90.0883 8.69796V1.37793H87.1172V20.7114H90.0883V19.3551C90.0883 19.2474 90.1528 19.1613 90.2605 19.1182ZM89.9591 13.9942C89.9591 11.5399 91.8106 9.62373 94.1789 9.62373C96.5471 9.62373 98.3987 11.5399 98.3987 13.9942C98.3987 16.4486 96.5471 18.3647 94.1789 18.3647C91.8106 18.3647 89.9591 16.4271 89.9591 13.9942Z" fill="#1B3139"/>
<path d="M110.003 10.0112C110.283 10.0112 110.541 10.0328 110.713 10.0758V7.01864C110.606 6.99711 110.412 6.97559 110.218 6.97559C108.668 6.97559 107.247 7.77218 106.494 9.04242C106.429 9.15007 106.321 9.19313 106.214 9.15007C106.106 9.12854 106.02 9.02089 106.02 8.91324V7.25547H103.07V20.7329H106.041V14.7908C106.041 11.8413 107.548 10.0112 110.003 10.0112Z" fill="#1B3139"/>
<path d="M115.6 7.25586H112.586V20.7333H115.6V7.25586Z" fill="#1B3139"/>
<path d="M114.051 1.39941C113.039 1.39941 112.221 2.21754 112.221 3.22942C112.221 4.24131 113.039 5.05943 114.051 5.05943C115.063 5.05943 115.881 4.24131 115.881 3.22942C115.881 2.21754 115.063 1.39941 114.051 1.39941Z" fill="#1B3139"/>
<path d="M124.427 6.91113C120.293 6.91113 117.301 9.88221 117.301 13.9943C117.301 15.9966 118.011 17.7835 119.281 19.0753C120.573 20.3671 122.382 21.0775 124.406 21.0775C126.085 21.0775 127.377 20.7546 129.831 18.9461L128.13 17.1592C126.924 17.9558 125.805 18.3433 124.707 18.3433C122.21 18.3433 120.336 16.4702 120.336 13.9943C120.336 11.5184 122.21 9.64538 124.707 9.64538C125.891 9.64538 126.989 10.0329 128.087 10.8295L129.982 9.04255C127.764 7.14796 125.762 6.91113 124.427 6.91113Z" fill="#1B3139"/>
<path d="M135.062 14.7908C135.105 14.7477 135.17 14.7262 135.235 14.7262H135.256C135.321 14.7262 135.385 14.7692 135.45 14.8123L140.208 20.7114H143.868L137.71 13.2622C137.624 13.1545 137.624 13.0038 137.732 12.9177L143.394 7.25544H139.756L134.868 12.1642C134.804 12.2288 134.696 12.2503 134.589 12.2288C134.502 12.1857 134.438 12.0996 134.438 11.9919V1.39941H131.445V20.7329H134.416V15.4797C134.416 15.4151 134.438 15.329 134.503 15.2859L135.062 14.7908Z" fill="#1B3139"/>
<path d="M148.714 21.0561C151.147 21.0561 153.623 19.5705 153.623 16.7502C153.623 14.8986 152.46 13.6284 150.092 12.8533L148.477 12.3151C147.379 11.9491 146.862 11.4324 146.862 10.7219C146.862 9.90378 147.594 9.34401 148.628 9.34401C149.618 9.34401 150.501 9.9899 151.061 11.1094L153.45 9.81766C152.568 8.00918 150.738 6.88965 148.628 6.88965C145.958 6.88965 144.02 8.61201 144.02 10.9587C144.02 12.8318 145.14 14.0805 147.444 14.8125L149.101 15.3507C150.264 15.7167 150.759 16.1904 150.759 16.9439C150.759 18.085 149.704 18.4941 148.8 18.4941C147.594 18.4941 146.518 17.719 146.001 16.4487L143.568 17.7405C144.365 19.7858 146.324 21.0561 148.714 21.0561Z" fill="#1B3139"/>
<path d="M67.8694 20.927C68.8167 20.927 69.6564 20.8409 70.13 20.7763V18.1928C69.7425 18.2358 69.0535 18.2789 68.6445 18.2789C67.4388 18.2789 66.5131 18.0636 66.5131 15.4585V9.92544C66.5131 9.77473 66.6207 9.66709 66.7714 9.66709H69.6779V7.23425H66.7714C66.6207 7.23425 66.5131 7.1266 66.5131 6.9759V3.10059H63.542V6.99743C63.542 7.14813 63.4343 7.25578 63.2836 7.25578H61.2168V9.68862H63.2836C63.4343 9.68862 63.542 9.79626 63.542 9.94697V16.2121C63.542 20.927 66.6853 20.927 67.8694 20.927Z" fill="#1B3139"/>
</g>
<defs>
<clipPath id="clip0_24475_5419">
<rect width="153.462" height="24.3283" fill="white" transform="translate(0.181641)"/>
</clipPath>
</defs>
</svg>
